<svg width="32" height="32" viewBox="0 0 32 32" fill="none" xmlns="http://www.w3.org/2000/svg">
<path fill-rule="evenodd" clip-rule="evenodd" d="M13.4554 7.64837C13.6118 6.8093 14.5539 6.33109 15.351 6.68698L15.5188 6.77514L19.756 9.39722C20.6376 9.9426 20.5819 11.2111 19.6555 11.681L15.2015 13.9385C14.3327 14.3788 13.3101 13.8069 13.2226 12.8973L13.2177 12.7115L13.4334 7.83303L13.4554 7.64837ZM14.5741 12.7686L19.0282 10.5099L14.7898 7.89021L14.5741 12.7686Z" fill="url(#paint0_radial_543_3564)"/>
<path fill-rule="evenodd" clip-rule="evenodd" d="M18.6177 2.68775L19.0208 2.70681C23.153 2.92122 26.1335 3.72825 27.9632 5.12756C29.8532 6.53894 30.7529 8.29166 30.6601 10.386L30.6466 10.6207C30.6076 11.1617 30.5173 11.6627 30.377 12.1229C29.7669 14.2953 28.2611 15.8145 25.8593 16.6797C23.4929 17.5132 20.7193 17.8624 17.5394 17.7293C15.9327 17.662 14.4328 17.5001 13.04 17.242C12.9293 18.9691 13.3538 20.2026 14.3144 20.9422C15.2149 21.6355 16.4746 22.0366 18.0932 22.1455L18.4228 22.1633C19.2432 22.1977 20.0332 22.1479 20.7926 22.0132C21.5537 21.8453 22.524 21.6023 23.7027 21.2853C24.6742 20.9932 25.331 20.8542 25.673 20.8684C26.0491 20.8841 26.2276 21.1082 26.2085 21.5403C26.1911 22.7052 25.693 23.9172 24.7124 25.175C23.7333 26.3994 22.3172 27.4221 20.4654 28.2438C18.6135 29.0655 16.4046 29.4222 13.8402 29.3148C10.1636 29.1607 7.16696 28.1611 4.85124 26.3139L4.62946 26.1316C2.35764 24.2296 1.26008 21.5796 1.33703 18.182L1.34806 17.8508C1.39227 16.8537 1.5806 15.696 1.91293 14.3781C2.94893 10.325 4.94861 7.32689 7.91208 5.38607C10.9113 3.41345 14.4804 2.51447 18.6177 2.68775ZM18.565 3.85643C14.647 3.69241 11.3415 4.54346 8.586 6.3558L8.58478 6.35699C5.91734 8.10393 4.06161 10.8259 3.08188 14.6557C2.76214 15.9236 2.58996 17.0024 2.5501 17.9008L2.54029 18.2058C2.46882 21.3225 3.46452 23.6124 5.41489 25.2453C7.51196 27.0008 10.3045 27.9958 13.8928 28.1461C16.3155 28.2475 18.3256 27.9075 19.9655 27.1799C21.6847 26.4172 22.9251 25.4999 23.7566 24.4626C24.4196 23.6111 24.7866 22.847 24.9317 22.1621C24.69 22.2209 24.3996 22.3001 24.0581 22.4028L24.0409 22.4087L24.0238 22.4123C22.8362 22.7317 21.8461 22.9797 21.0597 23.1533L21.034 23.1593L21.0083 23.164C20.1551 23.3153 19.2746 23.3699 18.3702 23.332C16.4489 23.2515 14.7978 22.8072 13.5669 21.8595C12.1739 20.7869 11.7158 19.0945 11.8392 17.1693L11.9238 15.8434L13.2643 16.0924C14.5929 16.3386 16.0347 16.4954 17.5909 16.5606C20.6496 16.6887 23.2569 16.3499 25.4402 15.5825C27.5231 14.8322 28.7207 13.5804 29.2167 11.8144L29.224 11.7906C29.3525 11.3689 29.4337 10.886 29.458 10.336C29.5297 8.71915 28.8903 7.35068 27.3799 6.16876L27.2316 6.05559L27.2194 6.04606C25.6337 4.83347 22.8329 4.03518 18.565 3.85643Z" fill="url(#paint1_radial_543_3564)"/>
<defs>
<radialGradient id="paint0_radial_543_3564" cx="0" cy="0" r="1" gradientTransform="matrix(-30.1134 25.6169 -26.3492 -29.2765 30.9774 3.21413)" gradientUnits="userSpaceOnUse">
<stop stop-color="#BA4EFF"/>
<stop offset="1" stop-color="#6954F9"/>
</radialGradient>
<radialGradient id="paint1_radial_543_3564" cx="0" cy="0" r="1" gradientTransform="matrix(-30.1134 25.6169 -26.3492 -29.2765 30.9774 3.21413)" gradientUnits="userSpaceOnUse">
<stop stop-color="#BA4EFF"/>
<stop offset="1" stop-color="#6954F9"/>
</radialGradient>
</defs>
</svg>
